{"title":"Revolution Z - Season 1 - Episode 2","uid":7805094,"size":524932982,"categoryP":"video","categoryS":"tv_shows","magnet":"?xt=urn:btih:870437a373710f0338cb76a38e6a708fe7e63174&amp;dn=Revolution+Z+-+Season+1+-+Episode+2&amp;tr=udp%3A%2F%2Ftracker.openbittorrent.com%3A80&amp;tr=udp%3A%2F%2Fopen.demonii.com%3A1337&amp;tr=udp%3A%2F%2Ftracker.coppersurfer.tk%3A6969&amp;tr=udp%3A%2F%2Fexodus.desync.com%3A6969","seeders":1,"leechers":0,"uploader":null,"files":-1,"time":1352335635,"description":"HQ WEBRip\n\nFormat                                   : AVI\nFormat/Info                              : Audio Video Interleave\nFile size                                : 501 MiB\nDuration                                 : 46mn 46s\nOverall bit rate                         : 1 496 Kbps\nWriting application                      : Lavf52.84.0\n\nVideo\nID                                       : 0\nFormat                                   : xvid\nCodec ID                                 : xvid\nDuration                                 : 46mn 46s\nBit rate                                 : 1 357 Kbps\nWidth                                    : 720 pixels\nHeight                                   : 400 pixels\nDisplay aspect ratio                     : 16:9\nFrame rate                               : 25.000 fps\nBits/(Pixel*Frame)                       : 0.189\nStream size                              : 454 MiB (91%)\n\nAudio\nID                                       : 1\nFormat                                   : AC-3\nFormat/Info                              : Audio Coding 3\nMode extension                           : CM (complete main)\nFormat settings, Endianness              : Big\nCodec ID                                 : 2000\nDuration                                 : 46mn 46s\nBit rate mode                            : Constant\nBit rate                                 : 128 Kbps\nChannel(s)                               : 2 channels\nChannel positions                        : Front: L R\nSampling rate                            : 48.0 KHz\nBit depth                                : 16 bits\nCompression mode                         : Lossy\nStream size                              : 42.8 MiB (9%)\nAlignment                                : Aligned on interleaves\nInterleave, duration                     : 32 ms (0.80 video frame)\n\n","torrent":{"xt":"urn:btih:870437a373710f0338cb76a38e6a708fe7e63174","amp;dn":"Revolution+Z+-+Season+1+-+Episode+2","amp;tr":["udp%3A%2F%2Ftracker.openbittorrent.com%3A80","udp%3A%2F%2Fopen.demonii.com%3A1337","udp%3A%2F%2Ftracker.coppersurfer.tk%3A6969","udp%3A%2F%2Fexodus.desync.com%3A6969"],"infoHash":"870437a373710f0338cb76a38e6a708fe7e63174","infoHashBuffer":{"type":"Buffer","data":[135,4,55,163,115,113,15,3,56,203,118,163,142,106,112,143,231,230,49,116]},"announce":[],"urlList":[]}}